<svg width="36" height="33" viewBox="0 0 36 33" fill="none" xmlns="http://www.w3.org/2000/svg">
<g clip-path="url(#clip0_249_2132)">
<path d="M17.5 3.49998C14.45 3.49998 11.5249 4.72212 9.36827 6.89754C7.2116 9.07295 6 12.0234 6 15.0999C6 22.9299 16.1344 31.7749 16.5656 32.1519C16.826 32.3765 17.1574 32.5 17.5 32.5C17.8426 32.5 18.174 32.3765 18.4344 32.1519C18.9375 31.7749 29 22.9299 29 15.0999C29 12.0234 27.7884 9.07295 25.6317 6.89754C23.4751 4.72212 20.55 3.49998 17.5 3.49998ZM17.5 29.0924C14.4381 26.1924 8.875 19.9429 8.875 15.0999C8.875 12.7926 9.7837 10.5797 11.4012 8.94814C13.0187 7.31658 15.2125 6.39998 17.5 6.39998C19.7875 6.39998 21.9813 7.31658 23.5988 8.94814C25.2163 10.5797 26.125 12.7926 26.125 15.0999C26.125 19.9429 20.5619 26.2069 17.5 29.0924ZM17.5 9.29997C16.3628 9.29997 15.2511 9.64013 14.3055 10.2774C13.3599 10.9147 12.6229 11.8206 12.1877 12.8804C11.7525 13.9402 11.6386 15.1064 11.8605 16.2315C12.0823 17.3566 12.63 18.39 13.4341 19.2012C14.2383 20.0123 15.2628 20.5647 16.3782 20.7885C17.4936 21.0123 18.6498 20.8974 19.7004 20.4584C20.7511 20.0194 21.6491 19.276 22.281 18.3222C22.9128 17.3684 23.25 16.2471 23.25 15.0999C23.25 13.5617 22.6442 12.0864 21.5659 10.9987C20.4875 9.91103 19.025 9.29997 17.5 9.29997ZM17.5 17.9999C16.9314 17.9999 16.3755 17.8299 15.9027 17.5112C15.4299 17.1925 15.0614 16.7396 14.8438 16.2097C14.6262 15.6798 14.5693 15.0967 14.6802 14.5342C14.7912 13.9716 15.065 13.4549 15.4671 13.0493C15.8691 12.6438 16.3814 12.3676 16.9391 12.2557C17.4968 12.1438 18.0749 12.2012 18.6002 12.4207C19.1256 12.6402 19.5746 13.0119 19.8905 13.4888C20.2064 13.9657 20.375 14.5264 20.375 15.0999C20.375 15.8691 20.0721 16.6067 19.5329 17.1505C18.9938 17.6944 18.2625 17.9999 17.5 17.9999Z" fill="#637381"/>
</g>
<defs>
<clipPath id="clip0_249_2132">
<rect y="0.499985" width="35.0877" height="32" fill="white"/>
</clipPath>
</defs>
</svg>
